<?xml version="1.0" encoding="UTF-8" standalone="no"?>
<svg
   xmlns:dc="http://purl.org/dc/elements/1.1/"
   xmlns:cc="http://creativecommons.org/ns#"
   xmlns:rdf="http://www.w3.org/1999/02/22-rdf-syntax-ns#"
   xmlns:svg="http://www.w3.org/2000/svg"
   xmlns="http://www.w3.org/2000/svg"
   xmlns:sodipodi="http://sodipodi.sourceforge.net/DTD/sodipodi-0.dtd"
   xmlns:inkscape="http://www.inkscape.org/namespaces/inkscape"
   width="765.24976"
   height="1000"
   id="svg2"
   version="1.1"
   inkscape:version="0.48.5 r10040"
   sodipodi:docname="Flag_of_Swaziland.svg">
  <metadata
     id="metadata138">
    <rdf:RDF>
      <cc:Work
         rdf:about="">
        <dc:format>image/svg+xml</dc:format>
        <dc:type
           rdf:resource="http://purl.org/dc/dcmitype/StillImage" />
      </cc:Work>
    </rdf:RDF>
  </metadata>
  <defs
     id="defs136">
    <clipPath
       clipPathUnits="userSpaceOnUse"
       id="clipPath3053">
      <g
         style="opacity:0.52529147"
         id="g3055"
         transform="matrix(0.64279692,0,0,0.64279692,102.38989,-30.725692)">
        <path
           d="m 544,482.4 -2.2,-1.1 -3.2,-0.8 -2.3,-3.5 0,-2.8 -0.9,-1.1 -3.4,-1.9 -6.2,1.8 -3.9,0.5 -1.8,0.8 -4.4,0.2 -5,-1.7 -9.2,0.2 -1.3,5.2 0.4,3.4 -0.3,0.5 c -1.1,5.5 -2.2,11 -3.4,16.5 -1.2,5.4 -2.2,10.9 -3.2,16.4 l 2.9,4.4 c -1.1,3.1 -1.9,6.3 -2.9,9.5 -1.6,5.5 -3.2,10.9 -4.6,16.5 l -0.3,0.3 -0.2,1 c -0.8,5.1 -1.4,10.2 -2.2,15.2 -0.3,1.8 -0.8,3.6 -1.1,5.4 -0.6,3.6 -1.1,7.3 -1.6,10.9 -0.3,1.8 -0.6,3.5 -0.8,5.3 -0.2,1.8 -0.3,3.6 -0.5,5.4 -0.1,0.5 -0.4,1.1 -0.4,1.6 l 0.2,3.5 c 0.2,3.6 0.5,7.2 0.7,10.8 0.2,4.2 0.6,8.4 0.7,12.6 0.1,1.8 -0.1,3.6 0,5.3 0.2,3 0.6,6 0.8,9 0.2,4.1 0.5,8.2 0.8,12.3 0,0.4 0.3,5.4 0.3,5.4 0.3,0.7 4.7,7.6 5.4,8.7 0.8,1.3 0.3,2 0.4,3.5 0.2,2.7 0.8,5.4 1,8.1 -1.1,0.3 -3.2,0.5 -4.3,0.3 l -27.3,-0.4 -25.1,0.4 -15.2,-0.5 -2.5,0.5 -26,-0.2 -3.6,-0.9 -2.8,0.7 -7.6,0.2 -3.1,-0.3 -11.2,0.1 -1.7,-0.5 -2.9,0.5 -16,-0.2 -10.2,0.3 -12.3,-0.3 -2.9,-1.2 -3.2,-0.5 -1.4,-1.1 -4.4,-1.6 -1.6,-1.5 -6.6,-1.6 -17.4,-6.5 -7.1,-2.2 -3.6,-1.7 -4.9,-2 -3,-0.4 -5.1,-2.4 -5,-2 -4,-0.2 -1.6,-1.3 -2.5,-0.6 -0.7,-1 -4.5,-1.7 -16.1,-6 -2.4,0.1 -4.5,-2.3 -7.2,-2.5 -4.5,-1.8 -7.7,-3.2 -2.7,-2.2 -2.7,-3.3 -0.1,-1.1 -13.1,-16.5 -1.5,-1.3 -5.4,-7.5 -6.1,-8 -5.7,-4.6 -6.2,-5.6 -16.1,-16.5 -0.9,-1.6 -3.6,-3.7 -2.2,-5.3 -0.7,-3.5 4.6,-9 1.2,-4.2 0.7,-3.5 -0.1,-6.9 -1.7,-6.2 -2.8,-4.4 -3.1,-2.6 -16.9,-15.7 -2.2,-4.1 -0.8,-5.4 -1.7,-5.6 0.2,-9.8 -0.1,-3.2 -3.6,4.3 -2.5,3.4 -3.9,3.8 -6,1.2 -4.1,6 -1.9,1.6 -3.6,1.4 -2.9,-0.4 -4,-5.8 -3.4,-19 -0.5,-6.4 -1.9,-15.6 0.3,-9.3 -0.8,-9 -0.1,-26.2 -0.6,-5.9 0.5,-9.7 0.7,-2.9 1.9,-10.6 3.8,-20.2 1.2,-2 1.3,-11.3 3.1,-6.9 1.3,-3.6 2.1,-6.9 2.8,-6.7 5.5,-6.1 8.5,-11.1 3.8,-6.6 4.5,-4.7 1.8,-1.9 2.4,-3.4 4.4,-4.4 17.1,-20.2 0.9,-0.6 4.3,-9.1 0.5,-1.7 2,-2.9 5.3,-11.5 3.8,-7.8 5.4,-10.9 5.1,-9.6 2.4,-3.2 2.5,-7.6 1.8,-2.5 2.5,-6.7 4.9,-8.7 1.5,-4.2 0.4,0 5.2,-9.7 2.3,-9.8 0.3,-4.3 2.8,-9.6 0.1,-1.9 3.2,-4.8 6.4,-4.7 3.8,-3.7 23.5,-20.4 7.9,-6.3 2.7,-3.2 7.5,-11.9 5.3,-6.3 3.1,-4.8 2.3,-2.1 3.2,-0.3 4.9,-2 6.1,-1.2 3.4,0 4.1,-2.3 4.7,-1.1 3.5,-0.2 2,-0.5 2.1,-1.5 3.1,-0.4 17.9,12.5 4.8,3.7 8.7,5.6 2,2.7 1.4,-0.3 6,4 3,0.8 2.3,1.6 2.5,3.1 17.8,12.3 2.1,2.1 3,2.4 1.8,0.1 10.7,7.1 22.1,15.6 11,7.1 4.5,3.2 3.9,2.8 3.7,2.6 2.1,2.1 7.3,4.1 4,2.6 3.6,2.9 11.6,7.9 4.3,-2.2 4,-2.9 1.9,0.5 9.5,-4.2 13.2,-6.4 2.2,-1 4.8,-2 3.2,6.3 4.6,8.6 8.6,3 0,-0.4 8.1,1.9 2.1,1 2.9,0.5 1.5,1.1 3,0 3.4,0.9 3.3,24 0.7,10.2 2.6,23 0.6,3.3 -2.2,10.2 -0.2,0.8 -11.7,27.4 2.8,38.9 0.9,9.8 0.5,3.6 -0.1,4.1 3.2,9.1 8.7,20.7 4.8,11.2 3.4,8.3 0,8.4 -0.3,27.5 0.6,5.6 -0.7,11.2 0,6.9 0.1,7.4 0.3,5.3 -0.6,2.1 -0.6,37 -0.1,5.3 z"
           id="path3057"
           inkscape:connector-curvature="0"
           style="fill:#fefee9" />
      </g>
    </clipPath>
  </defs>
  <sodipodi:namedview
     pagecolor="#ffffff"
     bordercolor="#666666"
     borderopacity="1"
     objecttolerance="10"
     gridtolerance="10"
     guidetolerance="10"
     inkscape:pageopacity="0"
     inkscape:pageshadow="2"
     inkscape:window-width="1366"
     inkscape:window-height="716"
     id="namedview134"
     showgrid="false"
     fit-margin-top="0"
     fit-margin-left="0"
     fit-margin-right="0"
     fit-margin-bottom="0"
     inkscape:zoom="0.1"
     inkscape:cx="981.49951"
     inkscape:cy="652.78436"
     inkscape:window-x="-8"
     inkscape:window-y="-8"
     inkscape:window-maximized="1"
     inkscape:current-layer="svg2" />
  <title
     id="title4">Flag of Swaziland</title>
  <g
     id="g3133"
     clip-path="url(#clipPath3053)"
     transform="matrix(2.5,0,0,2.5,-367.49999,-3.1349995e-6)">
    <rect
       style="fill:#3e5eb9"
       y="0"
       x="0"
       id="rect6"
       height="75"
       width="600" />
    <rect
       id="rect8"
       y="75"
       height="250"
       width="600"
       x="0"
       style="fill:#ffd900" />
    <rect
       id="rect10"
       y="100"
       height="200"
       width="600"
       x="0"
       style="fill:#b10c0c" />
    <g
       id="g12">
      <g
         id="g14"
         style="fill:#ffd900;stroke:#000000;stroke-width:1.0079">
        <rect
           id="rect16"
           ry="4.2856998"
           rx="4.2234998"
           y="195.72"
           x="59.812"
           height="8.5710001"
           width="485.70001"
           style="stroke-width:1.07969999" />
        <path
           id="path18"
           d="m 492.85,154.28 -24.285,8.5714 24.285,8.5714 24.285,-8.5714 -24.285,-8.5714 z"
           inkscape:connector-curvature="0"
           style="fill:#ffffff" />
        <rect
           id="rect20"
           ry="2.8571"
           rx="3.1055"
           y="160"
           x="122.85"
           height="5.7142"
           width="357.13" />
        <path
           id="path22"
           d="m 471.44,165.71 c 1.4272,0 2.8585,-1.4288 2.8585,-2.8573 0,-1.4284 -1.4313,-2.8573 -2.8585,-2.8573"
           inkscape:connector-curvature="0" />
        <path
           id="path24"
           d="m 468.58,165.71 c 1.4272,0 2.8585,-1.4288 2.8585,-2.8573 0,-1.4284 -1.4313,-2.8573 -2.8585,-2.8573"
           inkscape:connector-curvature="0" />
        <path
           id="path26"
           d="m 465.72,165.71 c 1.4272,0 2.8585,-1.4288 2.8585,-2.8573 0,-1.4284 -1.4313,-2.8573 -2.8585,-2.8573"
           inkscape:connector-curvature="0" />
        <path
           id="path28"
           d="m 469.99,171.43 -24.285,8.5714 24.285,8.5714 24.285,-8.5714 -24.285,-8.5714 z"
           inkscape:connector-curvature="0"
           style="fill:#ffffff" />
        <rect
           id="rect30"
           ry="2.8571"
           rx="3.1055"
           y="177.14"
           x="99.997002"
           height="5.7142"
           width="357.13" />
      </g>
      <g
         id="g38">
        <path
           id="path40"
           d="m 442.85,200 c -28.571,28.569 -66.668,85.711 -142.86,85.711 -66.668,0 -114.28,-57.142 -142.86,-85.711 28.571,-28.574 76.188,-85.716 142.86,-85.716 76.188,0 114.28,57.142 142.86,85.716 z"
           inkscape:connector-curvature="0"
           style="fill:#ffffff;stroke:#000000;stroke-width:1.0079" />
        <path
           id="path42"
           d="m 290.02,144.1 c 7.601,8.5493 1.2541,11.996 9.2997,12.557 8.4848,0.62314 3.6753,9.0336 10.812,9.3258 4.9896,0.21772 -0.49832,20.151 4.3053,26.729 4.8928,6.8574 8.9906,2.0092 9.0766,6.9634 0.0849,5.1235 -13.317,4.6068 -13.552,20.39 -0.39296,9.0955 -11.31,9.678 -11.831,15.531 -0.64775,5.5047 21.507,8.5953 21.211,13.523 -0.30372,4.913 -23.922,4.1438 -24.95,9.7467 -0.52734,5.0325 32.446,9.1575 35.098,23.713 -4.9202,1.6091 -18.919,3.1239 -29.499,3.1322 -66.657,0.0484 -114.28,-57.147 -142.85,-85.716 28.571,-28.574 76.188,-85.716 142.86,-85.716 0,0 -19.789,18.082 -9.9711,29.815 z"
           inkscape:connector-curvature="0"
           style="fill:#000000" />
        <g
           id="g44"
           style="fill:#ffffff">
          <rect
             id="rect46"
             y="169.52"
             x="210.47"
             height="22.857"
             width="6.9264998" />
          <rect
             id="rect48"
             y="207.62"
             x="210.47"
             height="22.857"
             width="6.9264998" />
          <rect
             id="rect50"
             y="169.52"
             x="224.32001"
             height="22.857"
             width="6.9264998" />
          <rect
             id="rect52"
             y="207.62"
             x="224.32001"
             height="22.857"
             width="6.9264998" />
          <rect
             id="rect54"
             y="169.52"
             x="238.17999"
             height="22.857"
             width="6.9264998" />
          <rect
             id="rect56"
             y="207.62"
             x="238.17999"
             height="22.857"
             width="6.9264998" />
          <rect
             id="rect58"
             y="169.52"
             x="252.03"
             height="22.857"
             width="6.9264998" />
          <rect
             id="rect60"
             y="207.62"
             x="252.03"
             height="22.857"
             width="6.9264998" />
          <rect
             id="rect62"
             y="169.52"
             x="265.88"
             height="22.857"
             width="6.9264998" />
          <rect
             id="rect64"
             y="207.62"
             x="265.88"
             height="22.857"
             width="6.9264998" />
          <rect
             id="rect66"
             y="169.52"
             x="279.73001"
             height="22.857"
             width="6.9264998" />
          <rect
             id="rect68"
             y="207.62"
             x="279.73001"
             height="22.857"
             width="6.9264998" />
        </g>
        <g
           id="g70"
           style="fill:#000000">
          <rect
             id="rect72"
             y="169.52"
             x="315.23001"
             height="22.857"
             width="6.9264998" />
          <rect
             id="rect74"
             y="207.62"
             x="315.23001"
             height="22.857"
             width="6.9264998" />
          <rect
             id="rect76"
             y="169.52"
             x="329.07999"
             height="22.857"
             width="6.9264998" />
          <rect
             id="rect78"
             y="207.62"
             x="329.07999"
             height="22.857"
             width="6.9264998" />
          <rect
             id="rect80"
             y="169.52"
             x="342.94"
             height="22.857"
             width="6.9264998" />
          <rect
             id="rect82"
             y="207.62"
             x="342.94"
             height="22.857"
             width="6.9264998" />
          <rect
             id="rect84"
             y="169.52"
             x="356.79001"
             height="22.857"
             width="6.9264998" />
          <rect
             id="rect86"
             y="207.62"
             x="356.79001"
             height="22.857"
             width="6.9264998" />
          <rect
             id="rect88"
             y="169.52"
             x="370.64001"
             height="22.857"
             width="6.9264998" />
          <rect
             id="rect90"
             y="207.62"
             x="370.64001"
             height="22.857"
             width="6.9264998" />
          <rect
             id="rect92"
             y="169.52"
             x="384.48999"
             height="22.857"
             width="6.9264998" />
          <rect
             id="rect94"
             y="207.62"
             x="384.48999"
             height="22.857"
             width="6.9264998" />
        </g>
      </g>
      <g
         id="g96"
         style="fill:#a70000">
        <path
           id="path98"
           d="m 511.35,196.6 c -4.328,7.496 3.3211,-2.4928 21.985,10.056 3.4586,2.3314 6.4807,8.4889 6.4807,12.759 -0.87787,-0.5873 -1.5297,-1.8944 -2.4969,-2.7426 -1.3541,1.3572 1.2927,7.5774 1.6796,10.517 -2.9179,-1.6332 -2.6367,-2.4062 -3.6062,-4.4127 0.19344,2.4255 -0.50108,9.1071 0.65957,11.68 -2.2996,-0.65652 -2.1473,-2.5081 -3.3483,-2.8799 0.81727,2.9124 -0.71162,6.0814 -0.30609,9.3553 -1.344,-1.3304 -2.7758,-2.3723 -3.3996,-2.9094 -0.10488,1.5593 -2.5847,5.6563 -2.6414,7.1304 -1.1404,-0.689 -1.4496,-1.7632 -1.64,-2.4861 -1.417,1.7806 -6.4543,8.3576 -6.7774,10.364 -3.8813,-3.4276 -13.823,-11.775 -15.117,-16.206 -1.1443,2.5154 -2.7998,3.3636 -6.0728,5.2004 -1.2935,-7.0225 -6.1303,-14.915 -3.5433,-20.934 -1.8326,1.0868 -3.3421,2.1736 -5.174,3.5112 1.7355,-10.17 10.587,-22.095 23.319,-28.001 z"
           inkscape:connector-curvature="0"
           style="fill:#3d5da7;stroke:#000000;stroke-width:0.85500002" />
        <path
           id="path100"
           d="m 495.21,233.72 c 1.7972,-3.592 3.4518,-4.7314 4.6131,-7.0436 2.0514,-4.0648 2.3436,-7.2995 4.1309,-6.8253 1.7873,0.47419 1.7853,2.1386 -0.52988,6.1359 -2.315,3.9972 -3.4156,4.8506 -8.2141,7.733 z"
           inkscape:connector-curvature="0" />
        <path
           id="path102"
           d="m 507.36,242.28 c -0.23063,-2.7347 0.56247,-3.8766 0.4175,-5.6381 -0.24699,-3.0991 -1.5141,-5.2262 0.13355,-5.3775 1.6477,-0.15125 2.4182,0.90572 2.4231,4.0288 0.005,3.1229 -0.47819,3.9431 -2.9742,6.9868 z"
           inkscape:connector-curvature="0" />
        <path
           id="path104"
           d="m 516.58,247.64 c -0.72007,-3.818 -0.1814,-5.5112 -0.64183,-7.9708 -0.80247,-4.3284 -2.389,-7.177 -0.86193,-7.573 1.5272,-0.396 2.4485,1.0038 3.0269,5.3927 0.57844,4.3887 0.27316,5.5953 -1.5232,10.151 z"
           inkscape:connector-curvature="0" />
        <path
           id="path106"
           d="m 526.17,220.89 c -2.252,-1.7093 -3.5664,-1.8238 -5.0185,-2.9224 -2.5582,-1.9274 -3.8525,-3.9899 -4.6753,-2.9657 -0.82279,1.0242 -0.23889,2.144 2.4416,3.922 2.6804,1.7779 3.5881,1.9184 7.2522,1.9661 z"
           inkscape:connector-curvature="0" />
        <path
           id="path108"
           d="m 524.58,233.56 c -1.187,-2.4648 -2.4361,-3.09 -3.2037,-4.676 -1.3574,-2.7868 -1.3594,-5.1982 -2.8315,-4.5801 -1.4721,0.61808 -1.5905,1.8803 -0.016,4.5778 1.5744,2.6973 2.3983,3.1856 6.0511,4.6783 z"
           inkscape:connector-curvature="0" />
        <path
           id="path110"
           d="m 80.783,203.82 c -0.24165,-2.1829 0.22477,-2.4439 -1.1176,-4.0905 1.9545,0.8178 2.0292,2.9917 4.4057,1.4486 0.87333,-0.45186 1.2536,-0.46621 0.19279,-2.8911 2.4787,0.11488 10.596,2.8987 11.896,2.9634 3.4133,0.1566 9.6439,-3.5858 13.969,1.016 4.1507,4.196 2.7648,8.551 2.7648,14.362 -1.6676,-0.79926 -0.86444,-1.1928 -2.6342,-3.2708 1.3273,5.0794 -0.0711,14.237 -0.0711,19.624 -0.68142,-1.2991 -0.58103,-0.7349 -1.2474,-2.0802 -1.7698,4.917 -3.8913,5.9289 -3.8913,11.74 -0.63878,-2.2788 -0.0222,-1.797 -0.73296,-2.9957 -1.72,3.7326 -13.26,6.9232 -8.8132,10.686 -4.0139,-2.3531 -5.7739,-2.1063 -7.5943,-4.2226 -0.78359,0.50598 -1.4073,1.4637 -2.1358,2.7769 -7.0568,-3.2466 -4.5336,-10.25 -10.062,-14.928 -0.95684,1.9614 -0.52062,1.6766 -1.5548,4.869 -1.1194,-4.4338 -1.425,-7.2515 -2.6839,-10.511 -1.0865,1.807 -0.98882,1.1143 -2.9611,3.8449 -0.81558,-5.4011 -2.1438,-6.6759 -1.6187,-10.25 -2.0958,1.4791 -0.72407,0.88003 -2.819,2.7004 1.9847,-13.84 10.558,-24.067 16.71,-20.792 z"
           inkscape:connector-curvature="0"
           style="fill:#3d5da7;stroke:#000000;stroke-width:1.06700003" />
        <path
           id="path112"
           d="m 72.101,226.41 c 1.818,-4.4561 3.4571,-5.8554 4.6317,-8.7238 2.0745,-5.0425 2.4125,-9.0727 4.1558,-8.4579 1.7433,0.61487 1.7148,2.6906 -0.6171,7.6454 -2.3318,4.9546 -3.4235,6.0046 -8.1705,9.5363 z"
           inkscape:connector-curvature="0" />
        <path
           id="path114"
           d="m 78.985,237.56 c 0.72865,-3.9953 1.879,-5.4503 2.3518,-8.0229 0.83943,-4.5242 0.37145,-7.8926 1.9913,-7.7155 1.6199,0.17713 1.9864,1.8847 0.90848,6.3853 -1.0779,4.5005 -1.8219,5.5663 -5.2516,9.3531 z"
           inkscape:connector-curvature="0" />
        <path
           id="path116"
           d="m 87.219,245.31 c 0.20544,-3.8732 1.1128,-5.3853 1.2485,-7.8798 0.2461,-4.3877 -0.59884,-7.5292 0.94628,-7.5469 1.5452,-0.0177 2.0951,1.56 1.6218,5.9527 -0.4733,4.3925 -1.0451,5.4888 -3.8166,9.4739 z"
           inkscape:connector-curvature="0" />
        <path
           id="path118"
           d="m 104.9,219.98 c -3.3811,-3.3682 -5.4254,-3.9969 -7.6058,-6.1633 -3.8419,-3.8045 -5.6984,-7.3757 -7.066,-6.1099 -1.3676,1.2658 -0.5453,3.1635 3.4997,6.7841 4.0448,3.6204 5.4516,4.1476 11.172,5.4892 z"
           inkscape:connector-curvature="0" />
        <path
           id="path120"
           d="m 102.84,233 c -2.2024,-3.382 -3.8185,-4.2582 -5.2399,-6.4344 -2.5072,-3.824 -3.3686,-7.1101 -4.7905,-6.2965 -1.422,0.81358 -1.1042,2.5313 1.6133,6.2379 2.7174,3.7064 3.8104,4.3878 8.4172,6.4931 z"
           inkscape:connector-curvature="0" />
        <path
           id="path122"
           d="m 253.8,129.5 c -3.958,7.6546 6.9299,-2.5456 23.998,10.269 3.163,2.3807 7.6965,11.787 7.6965,16.147 -3.634,-0.77297 -10.069,-4.3598 -10.069,-4.3598 0,0 7.5523,7.5642 7.5523,16.284 -2.6685,-1.6678 -4.0035,-1.4177 -4.8902,-3.4665 0,2.8232 2.373,4.6219 2.373,8.9817 -1.9261,-1.5366 -3.5566,-2.5611 -5.1864,-3.4605 2.5172,4.3598 -4.5875,12.818 -1.0316,15.641 -6.218,-0.8994 -12.58,-4.8721 -15.097,-9.2321 -1.3343,0.89939 -1.4792,2.311 -1.5311,3.8161 0.19609,0.16261 -9.4648,-7.1711 -8.5775,-9.9882 -1.2959,1.8182 -1.4785,2.8172 -1.774,4.8661 -3.5495,-3.5001 -6.802,-7 -7.9856,-11.525 -1.5772,2.0488 -1.676,2.0488 -3.2532,4.0977 -1.1829,-7.1711 -1.1829,-6.9151 1.1829,-13.061 -1.676,1.1098 -3.0564,2.2195 -4.7317,3.5855 1.5872,-10.385 9.6822,-22.563 21.325,-28.594 z"
           inkscape:connector-curvature="0"
           style="fill:#3d5da7;stroke:#000000;stroke-width:0.82599998" />
        <path
           id="path124"
           d="m 244.04,166.9 c 0.63263,-5.2749 2.012,-7.2621 2.424,-10.659 0.73497,-5.9744 -0.13678,-10.341 1.9801,-10.23 2.117,0.11043 2.7268,2.3142 1.6803,8.2756 -1.0464,5.9611 -1.9287,7.4094 -6.0844,12.614 z"
           inkscape:connector-curvature="0" />
        <path
           id="path126"
           d="m 255.09,176.56 c -0.42911,-4.4503 0.39283,-6.3451 0.12046,-9.2118 -0.47011,-5.044 -2.0282,-8.461 -0.18299,-8.7752 1.8452,-0.31423 2.778,1.3779 2.9772,6.4708 0.19918,5.0927 -0.29384,6.4501 -2.9147,11.516 z"
           inkscape:connector-curvature="0" />
        <path
           id="path128"
           d="m 272.34,184.44 c -1.876,-3.8507 -3.4876,-4.9993 -4.6992,-7.4778 -2.1393,-4.3565 -2.5856,-7.9134 -4.2356,-7.2688 -1.65,0.64457 -1.5595,2.4848 0.82351,6.7489 2.3829,4.2639 3.4599,5.1336 8.1113,7.9978 z"
           inkscape:connector-curvature="0" />
        <path
           id="path130"
           d="m 278.31,149.95 c -4.778,-2.5149 -7.2318,-2.5467 -10.311,-4.1626 -5.4222,-2.8336 -8.5776,-6.035 -9.6982,-4.2732 -1.1206,1.7619 0.37476,3.514 5.9645,6.0902 5.5895,2.5761 7.3074,2.698 14.045,2.3455 z"
           inkscape:connector-curvature="0" />
        <path
           id="path132"
           d="m 280.06,164.36 c -3.4794,-2.8944 -5.5364,-3.3205 -7.78,-5.1817 -3.9528,-3.2674 -5.9203,-6.4756 -7.2406,-5.175 -1.3204,1.3006 -0.43839,3.0186 3.7106,6.0967 4.1488,3.0779 5.5676,3.4601 11.31,4.2601 z"
           inkscape:connector-curvature="0" />
      </g>
    </g>
    <rect
       style="fill:#3e5eb9"
       y="325"
       x="0"
       id="rect6-1"
       height="75"
       width="600" />
  </g>
</svg>
